<svg width="30" height="42" viewBox="0 0 30 42" fill="none" xmlns="http://www.w3.org/2000/svg">
<path id="hand-draw-3" d="M3.41887 5.43182C3.50841 4.75438 5.77424 4.41915 6.22832 4.3229C8.79917 3.77794 11.6875 3.14567 14.3337 3.24386C18.3182 3.39171 17.529 8.64528 16.5177 11.094C15.9499 12.469 14.6086 15.958 12.7971 16.1843C11.6503 16.3276 14.013 15.7491 14.2525 15.7047C16.6198 15.2657 18.9586 15.5648 21.2053 16.4528C22.6044 17.0057 24.3851 17.7341 25.4167 18.8851C25.9153 19.4414 26.0603 20.2486 26.2573 20.943C26.6326 22.2655 26.7256 23.5774 26.8451 24.943C27.0061 26.7839 26.3929 28.1695 25.6053 29.7987C24.1627 32.7826 21.9368 36.2603 18.7523 37.5411C17.0885 38.2102 15.4409 38.653 13.681 38.9712C12.5936 39.1678 11.89 39.3552 11.0706 38.5302" stroke="#0000FF" stroke-width="5" stroke-linecap="round"/>
</svg>
