<svg width="130" height="50" viewBox="0 0 130 50" fill="none" xmlns="http://www.w3.org/2000/svg">
<path d="M3.93184 42V4.9H8.78184V34.8C8.78184 37.65 8.88184 40.75 9.33184 42H3.93184ZM28.1936 42.55C20.1436 42.55 14.1936 36.75 14.1936 28.6C14.1936 20.65 20.1436 14.65 27.7436 14.65C35.0436 14.65 40.5936 20.2 40.5936 27.4C40.5936 28 40.5436 29.1 40.4436 29.6H18.9936C19.4936 34.8 23.1936 38.05 28.0436 38.05C32.1436 38.05 35.0436 36.25 35.7436 33L40.6936 33.5C39.2936 39.2 34.8936 42.55 28.1936 42.55ZM19.2936 25.45H35.3936C35.2436 21.8 32.1436 19 27.6936 19C23.3936 19 20.2936 21.55 19.2936 25.45ZM55.2229 42.55C48.7729 42.55 44.4729 39.05 43.7729 33.9L48.9729 33.45C49.4229 36.5 52.0229 38.25 55.4729 38.25C58.7229 38.25 60.5729 36.7 60.5729 34.5C60.5729 32.5 59.3729 31.35 57.0729 30.8L51.7229 29.5C48.2729 28.65 45.1229 27.2 45.1229 22.7C45.1229 17.85 49.1229 14.65 54.7729 14.65C60.1729 14.65 64.0729 17.35 65.0729 22L60.1729 22.65C59.6229 20.3 57.7229 18.95 54.8229 18.95C51.9729 18.95 50.2729 20.45 50.2729 22.15C50.2729 24.1 51.9729 25.05 54.0229 25.55L59.6229 26.95C63.3229 27.85 65.7729 29.6 65.7729 33.75C65.7729 39.1 61.7729 42.55 55.2229 42.55ZM80.3205 42.55C73.8705 42.55 69.5705 39.05 68.8705 33.9L74.0705 33.45C74.5205 36.5 77.1205 38.25 80.5705 38.25C83.8205 38.25 85.6705 36.7 85.6705 34.5C85.6705 32.5 84.4705 31.35 82.1705 30.8L76.8205 29.5C73.3705 28.65 70.2205 27.2 70.2205 22.7C70.2205 17.85 74.2205 14.65 79.8705 14.65C85.2705 14.65 89.1705 17.35 90.1705 22L85.2705 22.65C84.7205 20.3 82.8205 18.95 79.9205 18.95C77.0705 18.95 75.3705 20.45 75.3705 22.15C75.3705 24.1 77.0705 25.05 79.1205 25.55L84.7205 26.95C88.4205 27.85 90.8705 29.6 90.8705 33.75C90.8705 39.1 86.8705 42.55 80.3205 42.55Z" fill="black"/>
<path d="M121.136 15.582C119.099 17.1096 116.384 18.4068 114.134 19.6393C111.722 20.9609 109.42 22.5507 107.001 23.8275C105.706 24.5111 104.48 25.3004 103.173 25.9543C102.654 26.2138 102.187 26.5337 101.7 26.8377C100.898 27.339 103.951 28.2478 104.122 28.3101C109.457 30.2622 114.327 34.0395 119.402 36.5883C121.876 37.831 124.611 39.3467 127.32 40.0239" stroke="#0000FF" stroke-width="5" stroke-linecap="round"/>
</svg>
